<svg width="60" height="86" viewBox="0 0 60 86" fill="none" xmlns="http://www.w3.org/2000/svg">
<g clip-path="url(#clip0_0_1)">
<path d="M18.75 0H0V18.75H18.75V0ZM15 15H3.75V3.75H15V15Z" fill="black"/>
<path d="M11.25 7.5H7.5V11.25H11.25V7.5Z" fill="black"/>
<path d="M41.25 0V18.75H60V0H41.25ZM56.25 15H45V3.75H56.25V15Z" fill="black"/>
<path d="M52.5 7.5H48.75V11.25H52.5V7.5Z" fill="black"/>
<path d="M0 60H18.75V41.25H0V60ZM3.75 45H15V56.25H3.75V45Z" fill="black"/>
<path d="M11.25 48.75H7.5V52.5H11.25V48.75Z" fill="black"/>
<path d="M37.5 0H30V3.75H37.5V0Z" fill="black"/>
<path d="M30 15H33.75V11.25H37.5V7.5H26.25V3.75H22.5V7.5V9.375V11.25H30V15Z" fill="black"/>
<path d="M26.25 15H22.5V18.75H26.25V15Z" fill="black"/>
<path d="M37.5 18.75H33.75V22.5H22.5V26.25H37.5V18.75Z" fill="black"/>
<path d="M3.75 33.75H7.5V30H3.75V22.5H0V37.5H3.75V33.75Z" fill="black"/>
<path d="M11.25 22.5H7.5V26.25H11.25V22.5Z" fill="black"/>
<path d="M22.5 37.5H30V33.75H26.25V30H18.75V22.5H15V30H11.25V37.5H15V33.75H16.875H18.75H22.5V37.5Z" fill="black"/>
<path d="M37.5 30H33.75V37.5H37.5V30Z" fill="black"/>
<path d="M33.75 41.25H22.5V45H30V56.25H22.5V60H33.75V56.25H41.25V52.5H33.75V41.25Z" fill="black"/>
<path d="M26.25 48.75H22.5V52.5H26.25V48.75Z" fill="black"/>
<path d="M41.25 41.25H37.5V48.75H41.25V41.25Z" fill="black"/>
<path d="M56.25 48.75H45V60H48.75V52.5H56.25V48.75Z" fill="black"/>
<path d="M60 56.25H52.5V60H60V56.25Z" fill="black"/>
<path d="M60 41.25H56.25V45H60V41.25Z" fill="black"/>
<path d="M45 45H48.75V33.75H41.25V37.5H45V45Z" fill="black"/>
<path d="M52.5 26.25H48.75V22.5H45V26.25H41.25V30H56.25V26.25H60V22.5H52.5V26.25Z" fill="black"/>
<path d="M60 33.75H52.5V37.5H60V33.75Z" fill="black"/>
</g>
<path d="M7.184 81H6.248V71.796H7.184V81ZM16.3317 79.596H16.3577V71.796H17.2937V81H16.1237L10.6377 73.122H10.6117V81H9.67573V71.796H10.8457L16.3317 79.596ZM22.4719 79.596H22.4979L25.5139 71.796H26.5279L22.9399 81H22.0039L18.5069 71.796H19.5469L22.4719 79.596ZM30.1072 72.498C29.6045 72.498 29.2058 72.6323 28.9112 72.901C28.6252 73.1697 28.4085 73.5033 28.2612 73.902C28.1138 74.3007 28.0185 74.7253 27.9752 75.176C27.9405 75.6267 27.9232 76.034 27.9232 76.398C27.9232 76.762 27.9405 77.1693 27.9752 77.62C28.0185 78.0707 28.1138 78.4953 28.2612 78.894C28.4085 79.2927 28.6252 79.6263 28.9112 79.895C29.2058 80.1637 29.6045 80.298 30.1072 80.298C30.6098 80.298 31.0042 80.1637 31.2902 79.895C31.5848 79.6263 31.8058 79.2927 31.9532 78.894C32.1005 78.4953 32.1915 78.0707 32.2262 77.62C32.2695 77.1693 32.2912 76.762 32.2912 76.398C32.2912 76.034 32.2695 75.6267 32.2262 75.176C32.1915 74.7253 32.1005 74.3007 31.9532 73.902C31.8058 73.5033 31.5848 73.1697 31.2902 72.901C31.0042 72.6323 30.6098 72.498 30.1072 72.498ZM30.1072 71.64C30.7658 71.64 31.2988 71.7917 31.7062 72.095C32.1135 72.3983 32.4298 72.784 32.6552 73.252C32.8805 73.72 33.0322 74.2357 33.1102 74.799C33.1882 75.3537 33.2272 75.8867 33.2272 76.398C33.2272 76.9093 33.1882 77.4467 33.1102 78.01C33.0322 78.5647 32.8805 79.076 32.6552 79.544C32.4298 80.012 32.1135 80.3977 31.7062 80.701C31.2988 81.0043 30.7658 81.156 30.1072 81.156C29.4485 81.156 28.9155 81.0043 28.5082 80.701C28.1008 80.3977 27.7845 80.012 27.5592 79.544C27.3338 79.076 27.1822 78.5647 27.1042 78.01C27.0262 77.4467 26.9872 76.9093 26.9872 76.398C26.9872 75.8867 27.0262 75.3537 27.1042 74.799C27.1822 74.2357 27.3338 73.72 27.5592 73.252C27.7845 72.784 28.1008 72.3983 28.5082 72.095C28.9155 71.7917 29.4485 71.64 30.1072 71.64ZM38.2408 81H37.3048V72.966L35.6538 74.422L35.0688 73.72L37.4088 71.796H38.2408V81ZM44.5544 72.498C44.0518 72.498 43.6531 72.6323 43.3584 72.901C43.0724 73.1697 42.8558 73.5033 42.7084 73.902C42.5611 74.3007 42.4658 74.7253 42.4224 75.176C42.3878 75.6267 42.3704 76.034 42.3704 76.398C42.3704 76.762 42.3878 77.1693 42.4224 77.62C42.4658 78.0707 42.5611 78.4953 42.7084 78.894C42.8558 79.2927 43.0724 79.6263 43.3584 79.895C43.6531 80.1637 44.0518 80.298 44.5544 80.298C45.0571 80.298 45.4514 80.1637 45.7374 79.895C46.0321 79.6263 46.2531 79.2927 46.4004 78.894C46.5478 78.4953 46.6388 78.0707 46.6734 77.62C46.7168 77.1693 46.7384 76.762 46.7384 76.398C46.7384 76.034 46.7168 75.6267 46.6734 75.176C46.6388 74.7253 46.5478 74.3007 46.4004 73.902C46.2531 73.5033 46.0321 73.1697 45.7374 72.901C45.4514 72.6323 45.0571 72.498 44.5544 72.498ZM44.5544 71.64C45.2131 71.64 45.7461 71.7917 46.1534 72.095C46.5608 72.3983 46.8771 72.784 47.1024 73.252C47.3278 73.72 47.4794 74.2357 47.5574 74.799C47.6354 75.3537 47.6744 75.8867 47.6744 76.398C47.6744 76.9093 47.6354 77.4467 47.5574 78.01C47.4794 78.5647 47.3278 79.076 47.1024 79.544C46.8771 80.012 46.5608 80.3977 46.1534 80.701C45.7461 81.0043 45.2131 81.156 44.5544 81.156C43.8958 81.156 43.3628 81.0043 42.9554 80.701C42.5481 80.3977 42.2318 80.012 42.0064 79.544C41.7811 79.076 41.6294 78.5647 41.5514 78.01C41.4734 77.4467 41.4344 76.9093 41.4344 76.398C41.4344 75.8867 41.4734 75.3537 41.5514 74.799C41.6294 74.2357 41.7811 73.72 42.0064 73.252C42.2318 72.784 42.5481 72.3983 42.9554 72.095C43.3628 71.7917 43.8958 71.64 44.5544 71.64ZM52.6881 81H51.7521V72.966L50.1011 74.422L49.5161 73.72L51.8561 71.796H52.6881V81Z" fill="black"/>
<defs>
<clipPath id="clip0_0_1">
<rect width="60" height="60" fill="white"/>
</clipPath>
</defs>
</svg>
