<svg width="50" height="50" viewBox="0 0 50 50" fill="none" xmlns="http://www.w3.org/2000/svg">
<g clip-path="url(#clip0_0_1)">
<path d="M27.9433 38.137H23.0564V43.942H27.9433V38.137Z" fill="#FDCC9B"/>
<path d="M23.0566 38.8206C23.0566 38.8206 25.1123 40.209 27.9436 39.8874V38.1368H23.0566V38.8206Z" fill="#FCBC85"/>
<path d="M16.0098 32.021C17.3267 32.021 18.3943 30.7291 18.3943 29.1356C18.3943 27.542 17.3267 26.2502 16.0098 26.2502C14.6928 26.2502 13.6252 27.542 13.6252 29.1356C13.6252 30.7291 14.6928 32.021 16.0098 32.021Z" fill="#FCBC85"/>
<path d="M34.9902 32.021C36.3072 32.021 37.3748 30.7291 37.3748 29.1356C37.3748 27.542 36.3072 26.2502 34.9902 26.2502C33.6733 26.2502 32.6057 27.542 32.6057 29.1356C32.6057 30.7291 33.6733 32.021 34.9902 32.021Z" fill="#FCBC85"/>
<path d="M34.9806 23.6243C34.9806 19.3743 32.0484 16.2643 25.5 16.2643C18.9516 16.2643 16.0194 19.3741 16.0194 23.6243C16.0194 27.8745 15.3353 39.0699 25.5 39.0699C35.6647 39.0699 34.9806 27.8745 34.9806 23.6243Z" fill="#FDCC9B"/>
<path d="M20.8822 29.6367C21.449 29.6367 21.9085 29.1029 21.9085 28.4445C21.9085 27.7861 21.449 27.2524 20.8822 27.2524C20.3154 27.2524 19.856 27.7861 19.856 28.4445C19.856 29.1029 20.3154 29.6367 20.8822 29.6367Z" fill="#3B2519"/>
<path d="M20.4348 28.2437C20.6043 28.2437 20.7417 28.0979 20.7417 27.9182C20.7417 27.7384 20.6043 27.5927 20.4348 27.5927C20.2653 27.5927 20.1279 27.7384 20.1279 27.9182C20.1279 28.0979 20.2653 28.2437 20.4348 28.2437Z" fill="white"/>
<path d="M19.2405 25.4902C19.7258 25.7476 20.505 24.6156 22.2887 25.6004C22.6139 25.7799 22.8079 24.0649 20.896 24.0649C19.2405 24.0649 18.9473 25.3348 19.2405 25.4902Z" fill="#51362A"/>
<path d="M30.2445 29.6367C30.8113 29.6367 31.2708 29.1029 31.2708 28.4445C31.2708 27.7861 30.8113 27.2524 30.2445 27.2524C29.6777 27.2524 29.2183 27.7861 29.2183 28.4445C29.2183 29.1029 29.6777 29.6367 30.2445 29.6367Z" fill="#3B2519"/>
<path d="M29.7971 28.2437C29.9666 28.2437 30.104 28.0979 30.104 27.9182C30.104 27.7384 29.9666 27.5927 29.7971 27.5927C29.6276 27.5927 29.4902 27.7384 29.4902 27.9182C29.4902 28.0979 29.6276 28.2437 29.7971 28.2437Z" fill="white"/>
<path d="M31.7595 25.4902C31.2742 25.7476 30.495 24.6156 28.7113 25.6004C28.3861 25.7799 28.1921 24.0649 30.1042 24.0649C31.7595 24.0649 32.0526 25.3348 31.7595 25.4902Z" fill="#51362A"/>
<path d="M25.4999 32.6377C24.4858 32.6377 23.875 31.8344 23.875 32.223C23.875 32.6118 24.1683 33.3505 25.4999 33.3505C26.8316 33.3505 27.1249 32.6118 27.1249 32.223C27.1249 31.8342 26.5139 32.6377 25.4999 32.6377Z" fill="#FCBC85"/>
<path d="M25.5001 36.2119C25.1493 36.2119 24.938 35.934 24.938 36.0685C24.938 36.2031 25.0394 36.4584 25.5001 36.4584C25.9608 36.4584 26.062 36.2031 26.062 36.0685C26.062 35.934 25.8507 36.2119 25.5001 36.2119Z" fill="#FCBC85"/>
<path d="M25.5 35.2215C23.8927 35.2215 22.9243 34.5273 22.9243 34.7032C22.9243 34.8792 23.3892 35.5715 25.5 35.5715C27.6109 35.5715 28.0757 34.8792 28.0757 34.7032C28.0756 34.5273 27.1073 35.2215 25.5 35.2215Z" fill="#F7945E"/>
<path d="M25.5 40.4692V47H13.6252C13.6252 44.3565 19.8801 40.4692 25.5 40.4692Z" fill="#F7941E"/>
<path d="M25.5 40.4692V47H37.3748C37.3748 44.3565 31.1199 40.4692 25.5 40.4692Z" fill="#F7941E"/>
<path d="M25.5001 40.4692C24.3047 40.4692 23.0808 40.6464 21.8943 40.9488C21.9023 40.96 23.2103 42.7498 25.5001 42.7498C27.6204 42.7498 29.0301 41.217 29.2344 40.9813C28.0078 40.6584 26.7387 40.4692 25.5001 40.4692Z" fill="#F36C21"/>
<path d="M23.0564 40.6953C23.0564 40.6953 23.7711 41.6355 25.4998 41.6355C27.2284 41.6355 27.9433 40.6953 27.9433 40.6953C27.9433 40.6953 25.4083 39.7165 23.0564 40.6953Z" fill="#FDCC9B"/>
<path d="M33.2945 15.3574C33.2945 15.3574 29.776 10.615 22.463 12.4031C15.1501 14.191 14.6022 18.8559 14.8221 23.3944C15.0421 27.933 15.6284 30.5955 16.322 30.2665C17.0156 29.9373 16.6547 26.9415 16.728 26.2502C16.8013 25.5588 17.461 22.4322 21.9087 22.8987C26.3562 23.3653 30.1042 21.6548 30.1042 21.6548C30.1042 21.6548 31.6129 23.6774 32.6057 24.065C34.5898 24.8392 33.9391 30.0018 34.7165 30.0018C35.4938 30.0018 39.3055 18.0785 33.2945 15.3574Z" fill="#51362A"/>
</g>
<circle cx="25" cy="25" r="23.5" stroke="url(#paint0_linear_0_1)" stroke-width="3"/>
<defs>
<linearGradient id="paint0_linear_0_1" x1="0" y1="25" x2="50" y2="25" gradientUnits="userSpaceOnUse">
<stop stop-color="#EC7AB7"/>
<stop offset="1" stop-color="#EC7A7A"/>
</linearGradient>
<clipPath id="clip0_0_1">
<rect width="33" height="35" fill="white" transform="translate(9 12)"/>
</clipPath>
</defs>
</svg>
