<svg width="200" height="250" viewBox="0 0 200 250" fill="none" xmlns="http://www.w3.org/2000/svg">
<g clip-path="url(#clip0_76_150)">
<path d="M62.5 0H0V62.5H62.5V0ZM50 50H12.5V12.5H50V50Z" fill="black"/>
<path d="M37.5 25H25V37.5H37.5V25Z" fill="black"/>
<path d="M137.5 0V62.5H200V0H137.5ZM187.5 50H150V12.5H187.5V50Z" fill="black"/>
<path d="M175 25H162.5V37.5H175V25Z" fill="black"/>
<path d="M0 200H62.5V137.5H0V200ZM12.5 150H50V187.5H12.5V150Z" fill="black"/>
<path d="M37.5 162.5H25V175H37.5V162.5Z" fill="black"/>
<path d="M125 0H100V12.5H125V0Z" fill="black"/>
<path d="M100 50H112.5V37.5H125V25H87.5V12.5H75V25V31.25V37.5H100V50Z" fill="black"/>
<path d="M87.5 50H75V62.5H87.5V50Z" fill="black"/>
<path d="M125 62.5H112.5V75H75V87.5H125V62.5Z" fill="black"/>
<path d="M12.5 112.5H25V100H12.5V75H0V125H12.5V112.5Z" fill="black"/>
<path d="M37.5 75H25V87.5H37.5V75Z" fill="black"/>
<path d="M75 125H100V112.5H87.5V100H62.5V75H50V100H37.5V125H50V112.5H56.25H62.5H75V125Z" fill="black"/>
<path d="M125 100H112.5V125H125V100Z" fill="black"/>
<path d="M112.5 137.5H75V150H100V187.5H75V200H112.5V187.5H137.5V175H112.5V137.5Z" fill="black"/>
<path d="M87.5 162.5H75V175H87.5V162.5Z" fill="black"/>
<path d="M137.5 137.5H125V162.5H137.5V137.5Z" fill="black"/>
<path d="M187.5 162.5H150V200H162.5V175H187.5V162.5Z" fill="black"/>
<path d="M200 187.5H175V200H200V187.5Z" fill="black"/>
<path d="M200 137.5H187.5V150H200V137.5Z" fill="black"/>
<path d="M150 150H162.5V112.5H137.5V125H150V150Z" fill="black"/>
<path d="M175 87.5H162.5V75H150V87.5H137.5V100H187.5V87.5H200V75H175V87.5Z" fill="black"/>
<path d="M200 112.5H175V125H200V112.5Z" fill="black"/>
</g>
<path d="M55.752 241H54.024V225.592H48.336V224.008H61.44V225.592H55.752V241ZM78.0773 238.312C77.7893 238.744 77.4293 239.152 76.9973 239.536C76.5813 239.92 76.1013 240.256 75.5573 240.544C75.0133 240.816 74.4213 241.032 73.7812 241.192C73.1573 241.352 72.4933 241.432 71.7893 241.432C70.5253 241.432 69.3493 241.208 68.2613 240.76C67.1893 240.312 66.2533 239.696 65.4533 238.912C64.6693 238.112 64.0533 237.168 63.6053 236.08C63.1573 234.992 62.9333 233.8 62.9333 232.504C62.9333 231.208 63.1573 230.016 63.6053 228.928C64.0533 227.84 64.6693 226.904 65.4533 226.12C66.2533 225.32 67.1893 224.696 68.2613 224.248C69.3493 223.8 70.5253 223.576 71.7893 223.576C72.8453 223.576 73.9013 223.784 74.9573 224.2C76.0133 224.616 76.9173 225.304 77.6693 226.264L76.1573 227.392C75.9813 227.12 75.7413 226.848 75.4373 226.576C75.1333 226.304 74.7813 226.064 74.3813 225.856C73.9973 225.648 73.5813 225.48 73.1333 225.352C72.6853 225.224 72.2373 225.16 71.7893 225.16C70.7013 225.16 69.7253 225.36 68.8613 225.76C67.9973 226.16 67.2613 226.696 66.6533 227.368C66.0613 228.04 65.6053 228.824 65.2853 229.72C64.9653 230.6 64.8053 231.528 64.8053 232.504C64.8053 233.48 64.9653 234.416 65.2853 235.312C65.6053 236.192 66.0613 236.968 66.6533 237.64C67.2613 238.312 67.9973 238.848 68.8613 239.248C69.7253 239.648 70.7013 239.848 71.7893 239.848C72.2373 239.848 72.6773 239.808 73.1093 239.728C73.5573 239.648 73.9893 239.512 74.4053 239.32C74.8373 239.128 75.2373 238.872 75.6053 238.552C75.9893 238.216 76.3413 237.8 76.6613 237.304L78.0773 238.312ZM82.7117 231.376H82.7357H82.9517L90.9437 224.008H93.4157L84.8477 231.712L93.8957 241H91.3517L82.9997 232.24H82.7357H82.7117V241H80.9837V224.008H82.7117V231.376ZM100.469 225.304C99.5409 225.304 98.8049 225.552 98.2609 226.048C97.7329 226.544 97.3329 227.16 97.0609 227.896C96.7889 228.632 96.6129 229.416 96.5329 230.248C96.4689 231.08 96.4369 231.832 96.4369 232.504C96.4369 233.176 96.4689 233.928 96.5329 234.76C96.6129 235.592 96.7889 236.376 97.0609 237.112C97.3329 237.848 97.7329 238.464 98.2609 238.96C98.8049 239.456 99.5409 239.704 100.469 239.704C101.397 239.704 102.125 239.456 102.653 238.96C103.197 238.464 103.605 237.848 103.877 237.112C104.149 236.376 104.317 235.592 104.381 234.76C104.461 233.928 104.501 233.176 104.501 232.504C104.501 231.832 104.461 231.08 104.381 230.248C104.317 229.416 104.149 228.632 103.877 227.896C103.605 227.16 103.197 226.544 102.653 226.048C102.125 225.552 101.397 225.304 100.469 225.304ZM100.469 223.72C101.685 223.72 102.669 224 103.421 224.56C104.173 225.12 104.757 225.832 105.173 226.696C105.589 227.56 105.869 228.512 106.013 229.552C106.157 230.576 106.229 231.56 106.229 232.504C106.229 233.448 106.157 234.44 106.013 235.48C105.869 236.504 105.589 237.448 105.173 238.312C104.757 239.176 104.173 239.888 103.421 240.448C102.669 241.008 101.685 241.288 100.469 241.288C99.2529 241.288 98.2689 241.008 97.5169 240.448C96.7649 239.888 96.1809 239.176 95.7649 238.312C95.3489 237.448 95.0689 236.504 94.9249 235.48C94.7809 234.44 94.7089 233.448 94.7089 232.504C94.7089 231.56 94.7809 230.576 94.9249 229.552C95.0689 228.512 95.3489 227.56 95.7649 226.696C96.1809 225.832 96.7649 225.12 97.5169 224.56C98.2689 224 99.2529 223.72 100.469 223.72ZM115.485 241H113.757V226.168L110.709 228.856L109.629 227.56L113.949 224.008H115.485V241ZM127.141 225.304C126.213 225.304 125.477 225.552 124.933 226.048C124.405 226.544 124.005 227.16 123.733 227.896C123.461 228.632 123.285 229.416 123.205 230.248C123.141 231.08 123.109 231.832 123.109 232.504C123.109 233.176 123.141 233.928 123.205 234.76C123.285 235.592 123.461 236.376 123.733 237.112C124.005 237.848 124.405 238.464 124.933 238.96C125.477 239.456 126.213 239.704 127.141 239.704C128.069 239.704 128.797 239.456 129.325 238.96C129.869 238.464 130.277 237.848 130.549 237.112C130.821 236.376 130.989 235.592 131.053 234.76C131.133 233.928 131.173 233.176 131.173 232.504C131.173 231.832 131.133 231.08 131.053 230.248C130.989 229.416 130.821 228.632 130.549 227.896C130.277 227.16 129.869 226.544 129.325 226.048C128.797 225.552 128.069 225.304 127.141 225.304ZM127.141 223.72C128.357 223.72 129.341 224 130.093 224.56C130.845 225.12 131.429 225.832 131.845 226.696C132.261 227.56 132.541 228.512 132.685 229.552C132.829 230.576 132.901 231.56 132.901 232.504C132.901 233.448 132.829 234.44 132.685 235.48C132.541 236.504 132.261 237.448 131.845 238.312C131.429 239.176 130.845 239.888 130.093 240.448C129.341 241.008 128.357 241.288 127.141 241.288C125.925 241.288 124.941 241.008 124.189 240.448C123.437 239.888 122.853 239.176 122.437 238.312C122.021 237.448 121.741 236.504 121.597 235.48C121.453 234.44 121.381 233.448 121.381 232.504C121.381 231.56 121.453 230.576 121.597 229.552C121.741 228.512 122.021 227.56 122.437 226.696C122.853 225.832 123.437 225.12 124.189 224.56C124.941 224 125.925 223.72 127.141 223.72ZM142.157 241H140.429V226.168L137.381 228.856L136.301 227.56L140.621 224.008H142.157V241Z" fill="black"/>
<defs>
<clipPath id="clip0_76_150">
<rect width="200" height="200" fill="white"/>
</clipPath>
</defs>
</svg>
