<svg width="231" height="70" viewBox="0 0 231 70" fill="none" xmlns="http://www.w3.org/2000/svg">
<path d="M3.76 14.0533V41.12H19.6667V44H0.306667V14.0533H3.76ZM28.044 44.6533C24.8795 44.6533 22.4528 43.8133 20.764 42.1333C19.7595 41.1378 19.2573 40.0311 19.2573 38.8133C19.2573 37.5867 19.7551 36.4756 20.7506 35.48C22.4662 33.7644 24.8973 32.9067 28.044 32.9067C30.604 32.9067 32.7151 33.5067 34.3773 34.7067V30.1733H26.244V27.7333H36.7506V45.2933H34.3773V42.8533C32.7151 44.0533 30.604 44.6533 28.044 44.6533ZM22.564 37.0933C22.0484 37.6889 21.7906 38.2622 21.7906 38.8133C21.7906 39.3911 22.0484 39.9778 22.564 40.5733C23.8528 41.7911 25.724 42.4044 28.1773 42.4133C30.7106 42.4222 32.5951 41.8178 33.8306 40.6C34.3817 40.0578 34.6573 39.4622 34.6573 38.8133C34.6573 38.1822 34.4217 37.6311 33.9506 37.16C33.8528 37.0622 33.7773 36.9911 33.724 36.9467C32.524 35.7467 30.6751 35.1422 28.1773 35.1333C25.8128 35.1244 23.9417 35.7778 22.564 37.0933ZM60.0176 27.6533V45.2267L57.9376 43.7067L42.5243 31.9067V44H39.9376V27.08L57.4976 40.4V27.6533H60.0176ZM71.0328 44.6533C68.5705 44.6533 66.5083 43.8133 64.8461 42.1333C63.1216 40.3911 62.2594 38.3244 62.2594 35.9333C62.2594 33.4978 63.1128 31.4267 64.8194 29.72C66.535 28.0044 68.6061 27.1467 71.0328 27.1467C72.3572 27.1467 73.5128 27.3822 74.4994 27.8533C75.2194 28.2 76.1794 28.8756 77.3794 29.88V12.6133L79.8194 12.6V45.3067L77.3794 45.2933V41.9867L77.2328 42.1333C75.5528 43.8133 73.4861 44.6533 71.0328 44.6533ZM66.5794 31.3333C66.535 31.3778 66.4728 31.4311 66.3928 31.4933C65.3616 32.5244 64.8461 34.0044 64.8461 35.9333C64.8461 37.8356 65.4016 39.36 66.5128 40.5067C67.6328 41.68 69.1394 42.2667 71.0328 42.2667C72.7928 42.2667 74.3128 41.6444 75.5928 40.4C76.8728 39.1556 77.5128 37.6667 77.5128 35.9333C77.5128 35.0978 77.335 34.2578 76.9794 33.4133C76.6061 32.5156 76.1128 31.8222 75.4994 31.3333C74.2994 30.1333 72.8105 29.5333 71.0328 29.5333C69.2639 29.5333 67.7794 30.1333 66.5794 31.3333ZM99.8238 44H96.3704V16.7867H84.9171V14.0533H110.837V16.7867H99.8238V44ZM105.78 27.7333L105.767 44H103.06L103.047 27.7333H105.78ZM105.78 20.3867V22.84H103.047V20.3867H105.78ZM123.074 40.48L124.794 42.2C123.043 43.88 120.959 44.72 118.541 44.72C116.096 44.72 114.034 43.88 112.354 42.2C110.674 40.52 109.834 38.4578 109.834 36.0133C109.834 33.5956 110.683 31.5378 112.381 29.84C114.079 28.1422 116.136 27.2933 118.554 27.2933C120.91 27.2933 122.945 28.1111 124.661 29.7467L123.008 31.4667C121.799 30.2578 120.31 29.6533 118.541 29.6533C116.79 29.6533 115.328 30.2356 114.154 31.4C114.119 31.4444 114.056 31.5022 113.968 31.5733C112.892 32.6489 112.354 34.1289 112.354 36.0133C112.354 37.8356 112.932 39.3467 114.088 40.5467C115.243 41.7467 116.728 42.3467 118.541 42.3467C120.319 42.3467 121.83 41.7244 123.074 40.48ZM130.262 37.8133V44H127.675V12.5333H130.262V34.3467L137.035 27.1467L138.835 28.88L132.569 35.36L143.262 43.28L141.622 45.2267L130.915 37.0933L130.262 37.8133Z" fill="url(#paint0_linear_0_1)"/>
<path d="M152.148 42.936L229.852 42.9361C230.209 42.9361 230.546 42.7696 230.763 42.4859C230.981 42.2021 231.053 41.8333 230.96 41.4883C228.846 33.6673 224.14 26.6115 217.708 21.6204C211.07 16.4695 203.104 13.7467 194.671 13.7467H173.987V10.747C173.987 10.1128 173.473 9.59869 172.839 9.59869H158.842C158.208 9.59869 157.694 10.1128 157.694 10.747V13.7467H152.148C151.514 13.7467 151 14.2608 151 14.895V19.8022V28.3414V41.7879C151 42.4219 151.514 42.936 152.148 42.936ZM153.297 22.2428L158.742 24.9206V27.1932H153.297V22.2428ZM193.202 22.0269L216.549 27.193H193.202V22.0269ZM194.671 16.0433C199.34 16.0433 203.857 16.933 208.055 18.654H192.054C191.419 18.654 190.905 19.1681 190.905 19.8022V28.3414C190.905 28.9756 191.419 29.4897 192.054 29.4897H222.391C225.011 32.8179 227.034 36.6047 228.318 40.6398L153.297 40.6394V29.4896H159.89C160.524 29.4896 161.038 28.9755 161.038 28.3413V19.8021C161.038 19.1679 160.524 18.6538 159.89 18.6538H153.297V16.0431H194.671V16.0433Z" fill="url(#paint1_linear_0_1)"/>
<path d="M229.852 44.4004H152.148C151.514 44.4004 151 44.9145 151 45.5487V49.2532C151 49.8873 151.514 50.4014 152.148 50.4014H226.147C228.823 50.4014 231 48.2246 231 45.5487C231 44.9145 230.486 44.4004 229.852 44.4004Z" fill="url(#paint2_linear_0_1)"/>
<path d="M178.03 38.0289H186.854C187.489 38.0289 188.003 37.5148 188.003 36.8806V19.8022C188.003 19.1681 187.489 18.654 186.854 18.654H178.03C177.396 18.654 176.882 19.1681 176.882 19.8022V36.8806C176.882 37.5148 177.396 38.0289 178.03 38.0289ZM179.179 35.7324V21.9766L185.706 25.1866V35.7324H179.179Z" fill="url(#paint3_linear_0_1)"/>
<path d="M165.089 29.4896H172.831C173.465 29.4896 173.979 28.9755 173.979 28.3413V19.8021C173.979 19.1679 173.465 18.6538 172.831 18.6538H165.089C164.455 18.6538 163.941 19.1679 163.941 19.8021V28.3413C163.941 28.9757 164.455 29.4896 165.089 29.4896ZM166.238 27.193V22.2427L171.683 24.9205V27.193H166.238Z" fill="url(#paint4_linear_0_1)"/>
<defs>
<linearGradient id="paint0_linear_0_1" x1="1.36449" y1="30" x2="152.766" y2="30" gradientUnits="userSpaceOnUse">
<stop stop-color="#EC7AB7"/>
<stop offset="1" stop-color="#EC7A7A"/>
</linearGradient>
<linearGradient id="paint1_linear_0_1" x1="219" y1="26" x2="151" y2="26" gradientUnits="userSpaceOnUse">
<stop stop-color="#EC7AB7"/>
<stop offset="1" stop-color="#EC7A7A"/>
</linearGradient>
<linearGradient id="paint2_linear_0_1" x1="231" y1="47" x2="151" y2="47" gradientUnits="userSpaceOnUse">
<stop stop-color="#EC7AB7"/>
<stop offset="1" stop-color="#EC7A7A"/>
</linearGradient>
<linearGradient id="paint3_linear_0_1" x1="182.442" y1="18.654" x2="182.442" y2="38.0289" gradientUnits="userSpaceOnUse">
<stop stop-color="#EC7AB7"/>
<stop offset="1" stop-color="#EC7A7A"/>
</linearGradient>
<linearGradient id="paint4_linear_0_1" x1="168.96" y1="18.6538" x2="168.96" y2="29.4896" gradientUnits="userSpaceOnUse">
<stop stop-color="#EC7AB7"/>
<stop offset="1" stop-color="#EC7A7A"/>
</linearGradient>
</defs>
</svg>
