<svg width="119" height="28" viewBox="0 0 119 28" fill="none" xmlns="http://www.w3.org/2000/svg">
<path d="M2.88 4.02667V17.56H10.8333V19H1.15333V4.02667H2.88ZM15.022 19.3267C13.4398 19.3267 12.2264 18.9067 11.382 18.0667C10.8798 17.5689 10.6286 17.0156 10.6286 16.4067C10.6286 15.7933 10.8775 15.2378 11.3753 14.74C12.2331 13.8822 13.4486 13.4533 15.022 13.4533C16.302 13.4533 17.3575 13.7533 18.1886 14.3533V12.0867H14.122V10.8667H19.3753V19.6467H18.1886V18.4267C17.3575 19.0267 16.302 19.3267 15.022 19.3267ZM12.282 15.5467C12.0242 15.8444 11.8953 16.1311 11.8953 16.4067C11.8953 16.6956 12.0242 16.9889 12.282 17.2867C12.9264 17.8956 13.862 18.2022 15.0886 18.2067C16.3553 18.2111 17.2975 17.9089 17.9153 17.3C18.1909 17.0289 18.3286 16.7311 18.3286 16.4067C18.3286 16.0911 18.2109 15.8156 17.9753 15.58C17.9264 15.5311 17.8886 15.4956 17.862 15.4733C17.262 14.8733 16.3375 14.5711 15.0886 14.5667C13.9064 14.5622 12.9709 14.8889 12.282 15.5467ZM31.0088 10.8267V19.6133L29.9688 18.8533L22.2621 12.9533V19H20.9688V10.54L29.7488 17.2V10.8267H31.0088ZM36.5164 19.3267C35.2853 19.3267 34.2542 18.9067 33.423 18.0667C32.5608 17.1956 32.1297 16.1622 32.1297 14.9667C32.1297 13.7489 32.5564 12.7133 33.4097 11.86C34.2675 11.0022 35.303 10.5733 36.5164 10.5733C37.1786 10.5733 37.7564 10.6911 38.2497 10.9267C38.6097 11.1 39.0897 11.4378 39.6897 11.94V3.30667L40.9097 3.3V19.6533L39.6897 19.6467V17.9933L39.6164 18.0667C38.7764 18.9067 37.743 19.3267 36.5164 19.3267ZM34.2897 12.6667C34.2675 12.6889 34.2364 12.7156 34.1964 12.7467C33.6808 13.2622 33.423 14.0022 33.423 14.9667C33.423 15.9178 33.7008 16.68 34.2564 17.2533C34.8164 17.84 35.5697 18.1333 36.5164 18.1333C37.3964 18.1333 38.1564 17.8222 38.7964 17.2C39.4364 16.5778 39.7564 15.8333 39.7564 14.9667C39.7564 14.5489 39.6675 14.1289 39.4897 13.7067C39.303 13.2578 39.0564 12.9111 38.7497 12.6667C38.1497 12.0667 37.4053 11.7667 36.5164 11.7667C35.6319 11.7667 34.8897 12.0667 34.2897 12.6667ZM50.9119 19H49.1852V5.39333H43.4585V4.02667H56.4185V5.39333H50.9119V19ZM53.8899 10.8667L53.8833 19H52.5299L52.5233 10.8667H53.8899ZM53.8899 7.19333V8.42H52.5233V7.19333H53.8899ZM62.5371 17.24L63.3971 18.1C62.5216 18.94 61.4794 19.36 60.2705 19.36C59.0482 19.36 58.0171 18.94 57.1771 18.1C56.3371 17.26 55.9171 16.2289 55.9171 15.0067C55.9171 13.7978 56.3416 12.7689 57.1905 11.92C58.0394 11.0711 59.0682 10.6467 60.2771 10.6467C61.4549 10.6467 62.4727 11.0556 63.3305 11.8733L62.5038 12.7333C61.8994 12.1289 61.1549 11.8267 60.2705 11.8267C59.3949 11.8267 58.6638 12.1178 58.0771 12.7C58.0594 12.7222 58.0282 12.7511 57.9838 12.7867C57.446 13.3244 57.1771 14.0644 57.1771 15.0067C57.1771 15.9178 57.466 16.6733 58.0438 17.2733C58.6216 17.8733 59.3638 18.1733 60.2705 18.1733C61.1594 18.1733 61.9149 17.8622 62.5371 17.24ZM66.131 15.9067V19H64.8377V3.26667H66.131V14.1733L69.5177 10.5733L70.4177 11.44L67.2843 14.68L72.631 18.64L71.811 19.6133L66.4577 15.5467L66.131 15.9067Z" fill="white"/>
<g clip-path="url(#clip0_76_653)">
<path d="M79.5741 16.468L118.426 16.4681C118.605 16.4681 118.773 16.3849 118.882 16.243C118.99 16.1011 119.027 15.9167 118.98 15.7442C117.923 11.8337 115.57 8.30578 112.354 5.81025C109.035 3.23476 105.052 1.8734 100.835 1.8734H90.4937V0.373513C90.4937 0.0564263 90.2367 -0.200623 89.9196 -0.200623H82.9212C82.6041 -0.200623 82.3471 0.0564263 82.3471 0.373513V1.8734H79.5741C79.257 1.8734 79 2.13045 79 2.44754V4.90115V9.17075V15.894C79 16.211 79.257 16.468 79.5741 16.468ZM80.1483 6.12143L82.8709 7.46032V8.59662H80.1483V6.12143ZM100.101 6.0135L111.775 8.59653H100.101V6.0135V6.0135ZM100.835 3.02167C103.17 3.02167 105.429 3.46655 107.528 4.32701H99.5268C99.2097 4.32701 98.9526 4.58406 98.9526 4.90115V9.17075C98.9526 9.48784 99.2097 9.74489 99.5268 9.74489H114.695C116.006 11.409 117.017 13.3024 117.659 15.3199L80.1483 15.3197V9.74481H83.445C83.7621 9.74481 84.0192 9.48776 84.0192 9.17067V4.90107C84.0192 4.58398 83.7621 4.32693 83.445 4.32693H80.1483V3.02159H100.835V3.02167Z" fill="white"/>
<path d="M118.426 17.2002H79.5741C79.257 17.2002 79 17.4572 79 17.7743V19.6266C79 19.9437 79.257 20.2007 79.5741 20.2007H116.574C117.912 20.2007 119 19.1123 119 17.7743C119 17.4572 118.743 17.2002 118.426 17.2002Z" fill="white"/>
<path d="M92.5153 14.0145H96.9273C97.2444 14.0145 97.5014 13.7574 97.5014 13.4403V4.90113C97.5014 4.58404 97.2444 4.327 96.9273 4.327H92.5153C92.1982 4.327 91.9412 4.58404 91.9412 4.90113V13.4403C91.9412 13.7574 92.1981 14.0145 92.5153 14.0145ZM93.0894 12.8662V5.9883L96.3532 7.59334V12.8662H93.0894Z" fill="white"/>
<path d="M86.0444 9.74481H89.9153C90.2323 9.74481 90.4894 9.48776 90.4894 9.17068V4.90107C90.4894 4.58398 90.2323 4.32693 89.9153 4.32693H86.0444C85.7273 4.32693 85.4702 4.58398 85.4702 4.90107V9.17068C85.4702 9.48785 85.7273 9.74481 86.0444 9.74481ZM86.6185 8.59654V6.12136L89.3411 7.46024V8.59654H86.6185Z" fill="white"/>
</g>
<defs>
<clipPath id="clip0_76_653">
<rect width="40" height="20" fill="white" transform="translate(79)"/>
</clipPath>
</defs>
</svg>
